<svg width="24" height="24" viewBox="0 0 24 24" fill="none" xmlns="http://www.w3.org/2000/svg">
<g clip-path="url(#clip0_10_2304)">
<path d="M9.74991 23.9999C9.51289 24.0011 9.28114 23.9299 9.08564 23.7959C8.89014 23.6619 8.7402 23.4714 8.65585 23.2499L6.78835 18.3936C6.75053 18.2958 6.69267 18.2069 6.61848 18.1327C6.5443 18.0585 6.45543 18.0007 6.35757 17.9628L1.49991 16.0939C1.27864 16.009 1.08831 15.859 0.954059 15.6637C0.819808 15.4683 0.747939 15.2369 0.747939 14.9999C0.747939 14.7629 0.819808 14.5314 0.954059 14.3361C1.08831 14.1408 1.27864 13.9907 1.49991 13.9058L6.35616 12.0383C6.45402 12.0005 6.54289 11.9426 6.61707 11.8684C6.69126 11.7943 6.74912 11.7054 6.78694 11.6075L8.65585 6.74987C8.74078 6.52859 8.8908 6.33827 9.08613 6.20402C9.28145 6.06977 9.5129 5.9979 9.74991 5.9979C9.98693 5.9979 10.2184 6.06977 10.4137 6.20402C10.609 6.33827 10.759 6.52859 10.844 6.74987L12.7115 11.6061C12.7493 11.704 12.8072 11.7928 12.8813 11.867C12.9555 11.9412 13.0444 11.9991 13.1423 12.0369L17.9704 13.8946C18.2007 13.9799 18.3991 14.1342 18.5385 14.3363C18.678 14.5384 18.7518 14.7787 18.7499 15.0242C18.7463 15.2571 18.6729 15.4836 18.5392 15.6743C18.4055 15.865 18.2176 16.0112 17.9999 16.0939L13.1437 17.9614C13.0458 17.9993 12.9569 18.0571 12.8827 18.1313C12.8086 18.2055 12.7507 18.2944 12.7129 18.3922L10.844 23.2499C10.7596 23.4714 10.6097 23.6619 10.4142 23.7959C10.2187 23.9299 9.98693 24.0011 9.74991 23.9999ZM4.12491 8.24987C3.98595 8.24986 3.85026 8.20776 3.7357 8.1291C3.62115 8.05044 3.53311 7.93893 3.48319 7.80925L2.69288 5.75425C2.67575 5.7093 2.64931 5.66849 2.6153 5.63448C2.5813 5.60047 2.54048 5.57403 2.49554 5.5569L0.440536 4.76659C0.31087 4.71666 0.199373 4.62861 0.120733 4.51406C0.0420927 4.39951 0 4.26382 0 4.12487C0 3.98592 0.0420927 3.85023 0.120733 3.73568C0.199373 3.62113 0.31087 3.53308 0.440536 3.48315L2.49554 2.69284C2.54044 2.67563 2.58121 2.64917 2.61521 2.61517C2.64921 2.58117 2.67567 2.54039 2.69288 2.4955L3.47616 0.458777C3.52034 0.338871 3.59635 0.233271 3.69603 0.153325C3.79572 0.0733783 3.91531 0.0221089 4.04194 0.00502661C4.19398 -0.0134561 4.34784 0.0193464 4.47912 0.0982325C4.6104 0.177119 4.71158 0.297573 4.76663 0.440495L5.55694 2.4955C5.57415 2.54039 5.60061 2.58117 5.63461 2.61517C5.66861 2.64917 5.70939 2.67563 5.75429 2.69284L7.80929 3.48315C7.93895 3.53308 8.05045 3.62113 8.12909 3.73568C8.20773 3.85023 8.24982 3.98592 8.24982 4.12487C8.24982 4.26382 8.20773 4.39951 8.12909 4.51406C8.05045 4.62861 7.93895 4.71666 7.80929 4.76659L5.75429 5.5569C5.70934 5.57403 5.66853 5.60047 5.63452 5.63448C5.60051 5.66849 5.57407 5.7093 5.55694 5.75425L4.76663 7.80925C4.71671 7.93893 4.62867 8.05044 4.51412 8.1291C4.39957 8.20776 4.26387 8.24986 4.12491 8.24987ZM18.7499 11.9999C18.5983 11.9998 18.4503 11.9538 18.3254 11.868C18.2004 11.7821 18.1045 11.6604 18.0501 11.5189L16.9794 8.73596C16.9606 8.68692 16.9317 8.64239 16.8945 8.60524C16.8574 8.5681 16.8129 8.53917 16.7638 8.52034L13.9808 7.44971C13.8395 7.39523 13.7179 7.29921 13.6321 7.17428C13.5464 7.04936 13.5005 6.90139 13.5005 6.74987C13.5005 6.59835 13.5464 6.45038 13.6321 6.32546C13.7179 6.20053 13.8395 6.10451 13.9808 6.05003L16.7638 4.9794C16.8129 4.96057 16.8574 4.93164 16.8945 4.8945C16.9317 4.85735 16.9606 4.81282 16.9794 4.76378L18.0421 2.0005C18.0906 1.86982 18.1736 1.75474 18.2823 1.6675C18.391 1.58025 18.5214 1.5241 18.6594 1.50503C18.8254 1.48494 18.9932 1.52085 19.1364 1.60704C19.2796 1.69324 19.3899 1.82479 19.4498 1.98081L20.5204 4.76378C20.5392 4.81282 20.5681 4.85735 20.6053 4.8945C20.6424 4.93164 20.687 4.96057 20.736 4.9794L23.519 6.05003C23.6604 6.10451 23.7819 6.20053 23.8677 6.32546C23.9534 6.45038 23.9993 6.59835 23.9993 6.74987C23.9993 6.90139 23.9534 7.04936 23.8677 7.17428C23.7819 7.29921 23.6604 7.39523 23.519 7.44971L20.736 8.52034C20.687 8.53917 20.6424 8.5681 20.6053 8.60524C20.5681 8.64239 20.5392 8.68692 20.5204 8.73596L19.4498 11.5189C19.3954 11.6604 19.2994 11.7821 19.1745 11.868C19.0495 11.9538 18.9015 11.9998 18.7499 11.9999Z" fill="white"/>
</g>
<defs>
<clipPath id="clip0_10_2304">
<rect width="24" height="24" fill="white"/>
</clipPath>
</defs>
</svg>
